<svg width="113" height="32" viewBox="0 0 113 32" fill="none" xmlns="http://www.w3.org/2000/svg">
  <path
    d="M4.90557 1.73864H4.87827L4.85097 1.57038L8.09962 1.54234L15.3067 18.5081C15.4159 18.7885 15.7981 19.0128 16.0984 19.0128H16.1257L16.1803 19.2091H12.8225L10.1471 12.8435C8.23612 16.6012 4.27768 19.5737 1.73881 19.5737C1.49311 19.5737 1.24741 19.5456 1.02902 19.4895C-0.390564 19.0969 -0.363264 17.1901 1.24742 13.7689L6.13405 3.39314L5.64266 2.21536C5.53346 1.96298 5.20586 1.73864 4.90557 1.73864ZM9.9287 12.3667L6.37975 3.95399L2.88539 12.8435C1.79341 15.6477 1.60231 16.9938 2.394 17.4985C2.6397 17.6668 2.93999 17.7229 3.26759 17.7229C5.20586 17.7229 8.42722 15.2832 9.9287 12.3667Z"
    fill="#1A1918" />
  <path
    d="M17.9333 17.835V8.18841C17.9333 7.45931 17.4146 6.9265 16.7048 6.9265H16.5683V6.81433C18.2336 6.7302 19.3255 6.19739 20.281 5.52437V8.30058C21.0727 6.9265 22.3012 5.77676 23.7481 5.55242C26.751 5.10374 29.5356 6.58999 29.5356 10.8805V17.835C29.5356 18.48 30.1089 19.0689 30.7641 19.0689V19.2091H25.9321V19.0689C26.6964 19.0689 27.1878 18.5922 27.1878 17.835V10.7683C27.1878 7.68365 25.9321 6.16935 24.2395 6.08522C22.6561 6.0011 21.1273 7.09475 20.281 8.9736V17.835C20.281 18.48 20.8543 19.0689 21.5095 19.0689V19.2091H16.7048V19.0689C17.4419 19.0689 17.9333 18.5922 17.9333 17.835Z"
    fill="#1A1918" />
  <path
    d="M33.0246 9.05773V9.02969C32.5878 8.66513 32.5332 8.07624 32.8881 7.71169C33.8709 6.70216 35.8092 5.55242 38.9213 5.55242C42.443 5.55242 44.1629 6.95454 44.1629 9.50641V17.5266C44.1629 18.2557 44.2721 18.5081 44.7362 18.5081C44.9 18.5081 45.1184 18.48 45.3641 18.4239V18.5081C44.7362 19.0128 43.9445 19.4054 43.2074 19.3774C42.4703 19.3493 41.7605 18.8726 41.7605 17.6668C40.3136 18.7043 38.8667 19.4895 36.8193 19.4895C34.0347 19.4895 32.2056 18.0594 32.151 15.7879C32.0691 11.6096 38.3481 10.6281 41.7605 10.4599V8.55296C41.7605 6.58999 40.6412 5.97305 38.894 5.97305C36.2187 5.97305 35.0721 7.40322 34.3623 8.74926C34.1712 9.11381 33.8982 9.31011 33.5979 9.31011C33.4068 9.31011 33.2157 9.22598 33.0246 9.05773ZM41.7605 17.3022V10.7683C39.0851 10.9366 34.7445 12.0022 34.7718 15.5355C34.7718 17.0779 35.6181 18.9567 37.6929 18.9567C39.0305 18.9567 40.6139 18.1996 41.7605 17.3022Z"
    fill="#1A1918" />
  <path
    d="M58.2557 19.2091H53.4236V19.0689C54.1607 19.0689 54.6521 18.5922 54.6521 17.835V2.94446C54.6521 2.18732 54.1607 1.71059 53.4236 1.71059V1.57038H58.2557V1.71059C57.6005 1.71059 57.0272 2.29949 57.0272 2.94446V10.7403L62.1595 6.25348C63.7975 4.82331 65.5447 3.22489 64.8895 1.54234L68.1382 1.57038L58.2557 10.2636C62.5417 10.9366 66.5548 15.4795 68.1109 19.2091H65.0533C62.2414 12.8715 59.1293 11.6937 57.0272 11.3853V17.835C57.0272 18.48 57.6005 19.0689 58.2557 19.0689V19.2091Z"
    fill="#1A1918" />
  <path
    d="M70.4017 9.05773V9.02969C69.9649 8.66513 69.9103 8.07624 70.2652 7.71169C71.248 6.70216 73.1862 5.55242 76.2984 5.55242C79.82 5.55242 81.5399 6.95454 81.5399 9.50641V17.5266C81.5399 18.2557 81.6491 18.5081 82.1132 18.5081C82.277 18.5081 82.4954 18.48 82.7411 18.4239V18.5081C82.1132 19.0128 81.3215 19.4054 80.5844 19.3774C79.8474 19.3493 79.1376 18.8726 79.1376 17.6668C77.6907 18.7043 76.2438 19.4895 74.1963 19.4895C71.4118 19.4895 69.5827 18.0594 69.5281 15.7879C69.4462 11.6096 75.7251 10.6281 79.1376 10.4599V8.55296C79.1376 6.58999 78.0183 5.97305 76.2711 5.97305C73.5957 5.97305 72.4492 7.40322 71.7394 8.74926C71.5483 9.11381 71.2753 9.31011 70.975 9.31011C70.7839 9.31011 70.5928 9.22598 70.4017 9.05773ZM79.1376 17.3022V10.7683C76.4622 10.9366 72.1216 12.0022 72.1488 15.5355C72.1488 17.0779 72.9951 18.9567 75.0699 18.9567C76.4076 18.9567 77.991 18.1996 79.1376 17.3022Z"
    fill="#1A1918" />
  <path
    d="M85.1172 8.21645C85.1172 7.48735 84.5713 6.95454 83.8615 6.95454H83.7523V6.84237C85.3902 6.75824 86.5095 6.19739 87.465 5.55242V8.66513C88.4205 6.9265 90.0312 5.55242 91.6146 5.55242C92.2971 5.55242 93.1979 5.63654 93.116 6.56195C93.0341 7.48735 92.3244 7.57148 91.6146 7.57148C90.5772 7.59952 88.3659 7.6556 87.465 9.08577V17.3022C87.465 18.1996 88.0383 19.0689 88.6935 19.0689V19.2091H83.8615V19.0689C84.5986 19.0689 85.09 18.3398 85.09 17.162L85.1172 8.21645Z"
    fill="#1A1918" />
  <path
    d="M95.0309 17.162V2.66404C95.0309 1.93493 94.4849 1.40213 93.8024 1.40213H93.6659V1.28996C95.3038 1.20583 96.4231 0.644978 97.3786 0V17.3022C97.3786 18.2276 97.9519 19.0689 98.6071 19.0689V19.2091H93.7751V19.0689C94.5122 19.0689 95.0309 18.3398 95.0309 17.162Z"
    fill="#1A1918" />
  <path
    d="M100.661 9.05773V9.02969C100.224 8.66513 100.169 8.07624 100.524 7.71169C101.507 6.70216 103.445 5.55242 106.557 5.55242C110.079 5.55242 111.799 6.95454 111.799 9.50641V17.5266C111.799 18.2557 111.908 18.5081 112.372 18.5081C112.536 18.5081 112.754 18.48 113 18.4239V18.5081C112.372 19.0128 111.58 19.4054 110.843 19.3774C110.106 19.3493 109.396 18.8726 109.396 17.6668C107.95 18.7043 106.503 19.4895 104.455 19.4895C101.671 19.4895 99.8416 18.0594 99.787 15.7879C99.7051 11.6096 105.984 10.6281 109.396 10.4599V8.55296C109.396 6.58999 108.277 5.97305 106.53 5.97305C103.855 5.97305 102.708 7.40322 101.998 8.74926C101.807 9.11381 101.534 9.31011 101.234 9.31011C101.043 9.31011 100.852 9.22598 100.661 9.05773ZM109.396 17.3022V10.7683C106.721 10.9366 102.38 12.0022 102.408 15.5355C102.408 17.0779 103.254 18.9567 105.329 18.9567C106.666 18.9567 108.25 18.1996 109.396 17.3022Z"
    fill="#1A1918" />
  <path
    d="M23.3102 31.9159V27.0084H24.8663C25.2439 27.0084 25.5533 27.0739 25.7945 27.2047C26.0402 27.3309 26.2199 27.5015 26.3337 27.7165C26.452 27.9315 26.5111 28.1769 26.5111 28.4526C26.5111 28.719 26.452 28.9621 26.3337 29.1817C26.2199 29.3967 26.0425 29.5696 25.8013 29.7005C25.5602 29.8314 25.2485 29.8968 24.8663 29.8968H23.8835V31.9159H23.3102ZM23.8835 29.3991H24.8595C25.2417 29.3991 25.5147 29.3126 25.6785 29.1397C25.8423 28.9667 25.9242 28.7377 25.9242 28.4526C25.9242 28.1488 25.8423 27.9151 25.6785 27.7516C25.5147 27.5833 25.2417 27.4992 24.8595 27.4992H23.8835V29.3991Z"
    fill="#9B2820" />
  <path
    d="M28.7912 32C28.4408 32 28.136 31.9346 27.8766 31.8037C27.6173 31.6728 27.4171 31.4906 27.276 31.2569C27.135 31.0232 27.0645 30.7521 27.0645 30.4436H27.665C27.665 30.6353 27.7083 30.8129 27.7947 30.9764C27.8812 31.1354 28.0063 31.2639 28.1701 31.362C28.3384 31.4555 28.5455 31.5022 28.7912 31.5022C29.005 31.5022 29.187 31.4672 29.3371 31.3971C29.4918 31.3223 29.6079 31.2218 29.6852 31.0956C29.7671 30.9694 29.8081 30.8269 29.8081 30.668C29.8081 30.4764 29.7671 30.3221 29.6852 30.2053C29.6079 30.0838 29.5009 29.9856 29.3644 29.9108C29.2279 29.8361 29.0687 29.7706 28.8867 29.7145C28.7093 29.6538 28.5227 29.5907 28.3271 29.5252C27.9494 29.3944 27.6719 29.2308 27.4944 29.0345C27.317 28.8382 27.2283 28.5835 27.2283 28.2703C27.2283 28.0039 27.2874 27.7703 27.4057 27.5693C27.5285 27.3683 27.7014 27.2117 27.9244 27.0996C28.1519 26.9827 28.4203 26.9243 28.7297 26.9243C29.0346 26.9243 29.2985 26.9827 29.5214 27.0996C29.7489 27.2164 29.9264 27.3777 30.0538 27.5833C30.1812 27.7843 30.2449 28.018 30.2449 28.2844H29.6443C29.6443 28.1488 29.6101 28.0156 29.5419 27.8848C29.4736 27.7539 29.369 27.6464 29.2279 27.5623C29.0915 27.4735 28.9186 27.4291 28.7093 27.4291C28.5364 27.4244 28.3817 27.4548 28.2452 27.5202C28.1132 27.581 28.0086 27.6698 27.9312 27.7866C27.8584 27.9035 27.822 28.046 27.822 28.2143C27.822 28.3732 27.8539 28.5017 27.9176 28.5998C27.9858 28.698 28.0814 28.7821 28.2042 28.8522C28.3316 28.9177 28.4795 28.9784 28.6478 29.0345C28.8162 29.0906 29.0027 29.1537 29.2075 29.2238C29.4395 29.3032 29.6443 29.4014 29.8217 29.5182C30.0037 29.6304 30.1448 29.7753 30.2449 29.9529C30.3495 30.1305 30.4018 30.3572 30.4018 30.6329C30.4018 30.8666 30.3404 31.0886 30.2176 31.2989C30.0993 31.5046 29.9218 31.6728 29.6852 31.8037C29.4486 31.9346 29.1506 32 28.7912 32Z"
    fill="#9B2820" />
  <path d="M31.2282 31.9159V27.0084H31.8015V31.9159H31.2282Z" fill="#9B2820" />
  <path
    d="M34.9025 32C34.4384 32 34.0358 31.8948 33.6945 31.6845C33.3578 31.4695 33.0985 31.1727 32.9165 30.7942C32.7345 30.4109 32.6435 29.9669 32.6435 29.4622C32.6435 28.9574 32.7345 28.5157 32.9165 28.1371C33.0985 27.7539 33.3578 27.4571 33.6945 27.2468C34.0358 27.0318 34.4384 26.9243 34.9025 26.9243C35.4485 26.9243 35.8922 27.0575 36.2334 27.3239C36.5746 27.5903 36.793 27.9666 36.8886 28.4526H36.2539C36.1811 28.1488 36.0332 27.9058 35.8103 27.7235C35.5873 27.5366 35.2847 27.4431 34.9025 27.4431C34.5613 27.4431 34.2656 27.5249 34.0153 27.6885C33.7651 27.8474 33.5717 28.0787 33.4352 28.3825C33.2987 28.6816 33.2304 29.0415 33.2304 29.4622C33.2304 29.8828 33.2987 30.245 33.4352 30.5488C33.5717 30.8479 33.7651 31.0793 34.0153 31.2428C34.2656 31.4018 34.5613 31.4812 34.9025 31.4812C35.2847 31.4812 35.5873 31.3924 35.8103 31.2148C36.0332 31.0325 36.1811 30.7918 36.2539 30.4927H36.8886C36.793 30.9648 36.5746 31.334 36.2334 31.6004C35.8922 31.8668 35.4485 32 34.9025 32Z"
    fill="#9B2820" />
  <path
    d="M39.8492 32C39.3897 32 38.9847 31.8948 38.6344 31.6845C38.2886 31.4695 38.0179 31.1727 37.8222 30.7942C37.6311 30.4109 37.5356 29.9669 37.5356 29.4622C37.5356 28.9621 37.6311 28.5227 37.8222 28.1442C38.0179 27.7609 38.2886 27.4618 38.6344 27.2468C38.9847 27.0318 39.3897 26.9243 39.8492 26.9243C40.3179 26.9243 40.7251 27.0318 41.0709 27.2468C41.4167 27.4618 41.6851 27.7609 41.8762 28.1442C42.0719 28.5227 42.1697 28.9621 42.1697 29.4622C42.1697 29.9669 42.0719 30.4109 41.8762 30.7942C41.6851 31.1727 41.4167 31.4695 41.0709 31.6845C40.7251 31.8948 40.3179 32 39.8492 32ZM39.8492 31.4812C40.195 31.4812 40.4976 31.4018 40.7569 31.2428C41.0208 31.0793 41.2233 30.8479 41.3643 30.5488C41.5099 30.245 41.5827 29.8828 41.5827 29.4622C41.5827 29.0415 41.5099 28.6816 41.3643 28.3825C41.2233 28.0787 41.0208 27.8474 40.7569 27.6885C40.4976 27.5296 40.195 27.4501 39.8492 27.4501C39.508 27.4501 39.2054 27.5296 38.9415 27.6885C38.6822 27.8474 38.4797 28.0787 38.3341 28.3825C38.193 28.6816 38.1225 29.0415 38.1225 29.4622C38.1225 29.8828 38.193 30.245 38.3341 30.5488C38.4797 30.8479 38.6822 31.0793 38.9415 31.2428C39.2054 31.4018 39.508 31.4812 39.8492 31.4812Z"
    fill="#9B2820" />
  <path d="M43.0052 31.9159V27.0084H43.5784V31.4462H45.8034V31.9159H43.0052Z" fill="#9B2820" />
  <path
    d="M48.287 32C47.8275 32 47.4226 31.8948 47.0722 31.6845C46.7264 31.4695 46.4557 31.1727 46.26 30.7942C46.069 30.4109 45.9734 29.9669 45.9734 29.4622C45.9734 28.9621 46.069 28.5227 46.26 28.1442C46.4557 27.7609 46.7264 27.4618 47.0722 27.2468C47.4226 27.0318 47.8275 26.9243 48.287 26.9243C48.7557 26.9243 49.1629 27.0318 49.5087 27.2468C49.8545 27.4618 50.1229 27.7609 50.314 28.1442C50.5097 28.5227 50.6075 28.9621 50.6075 29.4622C50.6075 29.9669 50.5097 30.4109 50.314 30.7942C50.1229 31.1727 49.8545 31.4695 49.5087 31.6845C49.1629 31.8948 48.7557 32 48.287 32ZM48.287 31.4812C48.6328 31.4812 48.9354 31.4018 49.1948 31.2428C49.4587 31.0793 49.6611 30.8479 49.8022 30.5488C49.9478 30.245 50.0206 29.8828 50.0206 29.4622C50.0206 29.0415 49.9478 28.6816 49.8022 28.3825C49.6611 28.0787 49.4587 27.8474 49.1948 27.6885C48.9354 27.5296 48.6328 27.4501 48.287 27.4501C47.9458 27.4501 47.6432 27.5296 47.3793 27.6885C47.12 27.8474 46.9175 28.0787 46.7719 28.3825C46.6309 28.6816 46.5603 29.0415 46.5603 29.4622C46.5603 29.8828 46.6309 30.245 46.7719 30.5488C46.9175 30.8479 47.12 31.0793 47.3793 31.2428C47.6432 31.4018 47.9458 31.4812 48.287 31.4812Z"
    fill="#9B2820" />
  <path
    d="M53.4973 32C53.0514 32 52.6601 31.8948 52.3234 31.6845C51.9867 31.4695 51.7251 31.1727 51.5385 30.7942C51.352 30.4156 51.2587 29.9739 51.2587 29.4692C51.2587 28.9691 51.352 28.5274 51.5385 28.1442C51.7296 27.7609 51.9981 27.4618 52.3439 27.2468C52.6942 27.0318 53.106 26.9243 53.5792 26.9243C54.1161 26.9243 54.5642 27.0575 54.9237 27.3239C55.2831 27.5856 55.5129 27.9525 55.613 28.4246H54.951C54.8873 28.1301 54.7371 27.8964 54.5005 27.7235C54.2639 27.5506 53.9568 27.4641 53.5792 27.4641C53.2288 27.4641 52.9217 27.5459 52.6578 27.7095C52.3985 27.8684 52.1983 28.0974 52.0572 28.3965C51.9162 28.6957 51.8456 29.0532 51.8456 29.4692C51.8456 29.8851 51.9162 30.245 52.0572 30.5488C52.1983 30.8479 52.3939 31.0769 52.6442 31.2358C52.899 31.3947 53.1902 31.4742 53.5178 31.4742C54.0273 31.4742 54.4118 31.32 54.6712 31.0115C54.9305 30.703 55.0784 30.2847 55.1148 29.7566H53.7362V29.2939H55.7017V31.9159H55.1762L55.1284 31.1097C55.0147 31.3013 54.8827 31.4649 54.7326 31.6004C54.587 31.7313 54.4141 31.8317 54.2139 31.9019C54.0137 31.9673 53.7748 32 53.4973 32Z"
    fill="#9B2820" />
  <path d="M56.615 31.9159V27.0084H57.1883V31.9159H56.615Z" fill="#9B2820" />
  <path
    d="M57.9075 31.9159L59.6683 27.0084H60.2757L62.0297 31.9159H61.4223L59.9686 27.7445L58.508 31.9159H57.9075ZM58.7128 30.654L58.8766 30.1772H61.0401L61.2039 30.654H58.7128Z"
    fill="#9B2820" />
  <path
    d="M66.6344 32C66.1703 32 65.7676 31.8948 65.4264 31.6845C65.0897 31.4695 64.8303 31.1727 64.6483 30.7942C64.4663 30.4109 64.3753 29.9669 64.3753 29.4622C64.3753 28.9574 64.4663 28.5157 64.6483 28.1371C64.8303 27.7539 65.0897 27.4571 65.4264 27.2468C65.7676 27.0318 66.1703 26.9243 66.6344 26.9243C67.1804 26.9243 67.624 27.0575 67.9652 27.3239C68.3065 27.5903 68.5249 27.9666 68.6204 28.4526H67.9857C67.9129 28.1488 67.765 27.9058 67.5421 27.7235C67.3191 27.5366 67.0166 27.4431 66.6344 27.4431C66.2931 27.4431 65.9974 27.5249 65.7471 27.6885C65.4969 27.8474 65.3035 28.0787 65.167 28.3825C65.0305 28.6816 64.9623 29.0415 64.9623 29.4622C64.9623 29.8828 65.0305 30.245 65.167 30.5488C65.3035 30.8479 65.4969 31.0793 65.7471 31.2428C65.9974 31.4018 66.2931 31.4812 66.6344 31.4812C67.0166 31.4812 67.3191 31.3924 67.5421 31.2148C67.765 31.0325 67.9129 30.7918 67.9857 30.4927H68.6204C68.5249 30.9648 68.3065 31.334 67.9652 31.6004C67.624 31.8668 67.1804 32 66.6344 32Z"
    fill="#9B2820" />
  <path d="M69.4517 31.9159V27.0084H70.025V31.4462H72.2499V31.9159H69.4517Z" fill="#9B2820" />
  <path
    d="M73.0508 31.9159V27.0084H73.624V31.9159H73.0508ZM72.6686 26.707L72.6071 26.2793L73.9789 25.389L74.0608 25.8937L72.6686 26.707Z"
    fill="#9B2820" />
  <path
    d="M74.6503 31.9159V27.0084H75.2236L77.7693 30.9414V27.0084H78.3426V31.9159H77.7693L75.2236 27.9829V31.9159H74.6503Z"
    fill="#9B2820" />
  <path d="M79.3691 31.9159V27.0084H79.9424V31.9159H79.3691Z" fill="#9B2820" />
  <path
    d="M83.0435 32C82.5794 32 82.1767 31.8948 81.8355 31.6845C81.4988 31.4695 81.2394 31.1727 81.0574 30.7942C80.8754 30.4109 80.7844 29.9669 80.7844 29.4622C80.7844 28.9574 80.8754 28.5157 81.0574 28.1371C81.2394 27.7539 81.4988 27.4571 81.8355 27.2468C82.1767 27.0318 82.5794 26.9243 83.0435 26.9243C83.5895 26.9243 84.0331 27.0575 84.3743 27.3239C84.7156 27.5903 84.934 27.9666 85.0295 28.4526H84.3948C84.322 28.1488 84.1741 27.9058 83.9512 27.7235C83.7283 27.5366 83.4257 27.4431 83.0435 27.4431C82.7022 27.4431 82.4065 27.5249 82.1562 27.6885C81.906 27.8474 81.7126 28.0787 81.5761 28.3825C81.4396 28.6816 81.3714 29.0415 81.3714 29.4622C81.3714 29.8828 81.4396 30.245 81.5761 30.5488C81.7126 30.8479 81.906 31.0793 82.1562 31.2428C82.4065 31.4018 82.7022 31.4812 83.0435 31.4812C83.4257 31.4812 83.7283 31.3924 83.9512 31.2148C84.1741 31.0325 84.322 30.7918 84.3948 30.4927H85.0295C84.934 30.9648 84.7156 31.334 84.3743 31.6004C84.0331 31.8668 83.5895 32 83.0435 32Z"
    fill="#9B2820" />
  <path
    d="M85.4404 31.9159L87.2012 27.0084H87.8086L89.5626 31.9159H88.9552L87.5015 27.7445L86.041 31.9159H85.4404ZM86.2457 30.654L86.4095 30.1772H88.573L88.7368 30.654H86.2457Z"
    fill="#9B2820" />
</svg>